G04 EAGLE Gerber RS-274X export*
G75*
%MOMM*%
%FSLAX34Y34*%
%LPD*%
%INSilkscreen Top*%
%IPPOS*%
%AMOC8*
5,1,8,0,0,1.08239X$1,22.5*%
G01*
G04 Define Apertures*
%ADD10C,0.120000*%
%ADD11C,0.500000*%
%ADD12C,0.152400*%
%ADD13C,0.762000*%
%ADD14R,0.762000X0.508000*%
%ADD15R,0.762000X1.016000*%
G36*
X122789Y991910D02*
X116324Y991910D01*
X116324Y1009196D01*
X122040Y1009196D01*
X122582Y1009187D01*
X123107Y1009161D01*
X123617Y1009118D01*
X124111Y1009058D01*
X124590Y1008981D01*
X125052Y1008886D01*
X125499Y1008774D01*
X125931Y1008645D01*
X126347Y1008499D01*
X126747Y1008336D01*
X127131Y1008155D01*
X127500Y1007957D01*
X127853Y1007742D01*
X128191Y1007510D01*
X128512Y1007260D01*
X128819Y1006994D01*
X129108Y1006711D01*
X129378Y1006414D01*
X129629Y1006102D01*
X129862Y1005776D01*
X130077Y1005436D01*
X130273Y1005081D01*
X130450Y1004711D01*
X130608Y1004327D01*
X130748Y1003928D01*
X130869Y1003515D01*
X130972Y1003087D01*
X131056Y1002645D01*
X131121Y1002188D01*
X131167Y1001717D01*
X131195Y1001231D01*
X131205Y1000731D01*
X131188Y1000073D01*
X131140Y999435D01*
X131058Y998819D01*
X130944Y998223D01*
X130797Y997649D01*
X130618Y997095D01*
X130406Y996562D01*
X130162Y996050D01*
X129888Y995564D01*
X129586Y995106D01*
X129257Y994678D01*
X128901Y994279D01*
X128518Y993910D01*
X128108Y993570D01*
X127670Y993259D01*
X127205Y992977D01*
X126718Y992727D01*
X126212Y992510D01*
X125687Y992327D01*
X125144Y992177D01*
X124583Y992060D01*
X124003Y991977D01*
X123405Y991927D01*
X122789Y991910D01*
G37*
%LPC*%
G36*
X122519Y993787D02*
X122987Y993800D01*
X123441Y993839D01*
X123880Y993904D01*
X124305Y993996D01*
X124716Y994113D01*
X125112Y994256D01*
X125494Y994426D01*
X125862Y994621D01*
X126212Y994841D01*
X126541Y995084D01*
X126849Y995350D01*
X127136Y995639D01*
X127403Y995952D01*
X127648Y996287D01*
X127873Y996645D01*
X128076Y997026D01*
X128257Y997427D01*
X128414Y997846D01*
X128547Y998283D01*
X128656Y998737D01*
X128741Y999209D01*
X128801Y999699D01*
X128837Y1000206D01*
X128849Y1000731D01*
X128842Y1001127D01*
X128822Y1001510D01*
X128787Y1001882D01*
X128739Y1002242D01*
X128677Y1002590D01*
X128602Y1002927D01*
X128512Y1003251D01*
X128409Y1003563D01*
X128292Y1003863D01*
X128162Y1004152D01*
X128017Y1004428D01*
X127859Y1004693D01*
X127687Y1004946D01*
X127501Y1005186D01*
X127302Y1005415D01*
X127089Y1005632D01*
X126863Y1005836D01*
X126624Y1006027D01*
X126373Y1006205D01*
X126110Y1006370D01*
X125835Y1006521D01*
X125547Y1006660D01*
X125247Y1006785D01*
X124934Y1006897D01*
X124609Y1006996D01*
X124272Y1007081D01*
X123923Y1007154D01*
X123561Y1007213D01*
X123187Y1007259D01*
X122801Y1007292D01*
X122402Y1007312D01*
X121991Y1007319D01*
X118667Y1007319D01*
X118667Y993787D01*
X122519Y993787D01*
G37*
%LPD*%
G36*
X140852Y991665D02*
X140083Y991682D01*
X139356Y991733D01*
X138670Y991819D01*
X138025Y991939D01*
X137422Y992094D01*
X136861Y992282D01*
X136341Y992505D01*
X135862Y992763D01*
X135425Y993054D01*
X135030Y993380D01*
X134676Y993741D01*
X134363Y994135D01*
X134092Y994564D01*
X133863Y995027D01*
X133675Y995525D01*
X133528Y996057D01*
X135798Y996511D01*
X135910Y996134D01*
X136050Y995783D01*
X136217Y995458D01*
X136411Y995160D01*
X136634Y994886D01*
X136884Y994639D01*
X137161Y994418D01*
X137466Y994223D01*
X137800Y994051D01*
X138162Y993903D01*
X138553Y993778D01*
X138972Y993675D01*
X139421Y993595D01*
X139898Y993538D01*
X140404Y993504D01*
X140938Y993493D01*
X141490Y993505D01*
X142008Y993541D01*
X142495Y993602D01*
X142949Y993687D01*
X143370Y993797D01*
X143760Y993931D01*
X144116Y994089D01*
X144441Y994272D01*
X144730Y994478D01*
X144980Y994707D01*
X145192Y994959D01*
X145366Y995233D01*
X145500Y995531D01*
X145597Y995851D01*
X145655Y996194D01*
X145674Y996560D01*
X145668Y996766D01*
X145650Y996963D01*
X145619Y997150D01*
X145577Y997326D01*
X145456Y997650D01*
X145287Y997934D01*
X145075Y998186D01*
X144823Y998415D01*
X144532Y998621D01*
X144202Y998805D01*
X143835Y998970D01*
X143435Y999121D01*
X143001Y999258D01*
X142533Y999381D01*
X140386Y999884D01*
X139424Y1000111D01*
X138584Y1000338D01*
X137869Y1000565D01*
X137276Y1000792D01*
X136774Y1001026D01*
X136327Y1001272D01*
X135936Y1001532D01*
X135602Y1001804D01*
X135313Y1002095D01*
X135060Y1002410D01*
X134844Y1002748D01*
X134663Y1003111D01*
X134521Y1003499D01*
X134419Y1003914D01*
X134358Y1004357D01*
X134338Y1004828D01*
X134345Y1005102D01*
X134365Y1005367D01*
X134398Y1005625D01*
X134444Y1005875D01*
X134504Y1006117D01*
X134577Y1006350D01*
X134763Y1006794D01*
X135002Y1007206D01*
X135294Y1007586D01*
X135639Y1007935D01*
X136037Y1008251D01*
X136485Y1008533D01*
X136978Y1008777D01*
X137518Y1008984D01*
X138103Y1009153D01*
X138734Y1009284D01*
X139411Y1009378D01*
X140133Y1009435D01*
X140902Y1009453D01*
X141616Y1009439D01*
X142287Y1009397D01*
X142915Y1009327D01*
X143499Y1009228D01*
X144040Y1009101D01*
X144538Y1008946D01*
X144993Y1008763D01*
X145404Y1008552D01*
X145779Y1008306D01*
X146125Y1008021D01*
X146441Y1007697D01*
X146729Y1007332D01*
X146987Y1006929D01*
X147217Y1006485D01*
X147417Y1006002D01*
X147588Y1005478D01*
X145281Y1005074D01*
X145175Y1005405D01*
X145048Y1005713D01*
X144899Y1005998D01*
X144729Y1006259D01*
X144537Y1006496D01*
X144324Y1006710D01*
X144090Y1006901D01*
X143834Y1007067D01*
X143554Y1007212D01*
X143249Y1007338D01*
X142918Y1007445D01*
X142561Y1007532D01*
X142178Y1007600D01*
X141770Y1007648D01*
X141336Y1007677D01*
X140877Y1007687D01*
X140374Y1007676D01*
X139902Y1007644D01*
X139460Y1007590D01*
X139049Y1007515D01*
X138669Y1007418D01*
X138319Y1007300D01*
X138000Y1007161D01*
X137712Y1007000D01*
X137456Y1006817D01*
X137234Y1006614D01*
X137046Y1006390D01*
X136893Y1006144D01*
X136774Y1005877D01*
X136688Y1005590D01*
X136637Y1005281D01*
X136620Y1004951D01*
X136627Y1004756D01*
X136646Y1004569D01*
X136680Y1004392D01*
X136726Y1004223D01*
X136785Y1004062D01*
X136858Y1003910D01*
X137043Y1003632D01*
X137278Y1003381D01*
X137560Y1003151D01*
X137889Y1002940D01*
X138264Y1002749D01*
X138762Y1002558D01*
X139457Y1002346D01*
X140350Y1002113D01*
X141441Y1001859D01*
X143030Y1001485D01*
X143804Y1001277D01*
X144545Y1001031D01*
X145246Y1000745D01*
X145901Y1000412D01*
X146206Y1000224D01*
X146491Y1000016D01*
X146755Y999788D01*
X146999Y999541D01*
X147219Y999272D01*
X147414Y998979D01*
X147584Y998664D01*
X147729Y998326D01*
X147844Y997961D01*
X147927Y997566D01*
X147976Y997139D01*
X147992Y996682D01*
X147985Y996387D01*
X147963Y996101D01*
X147927Y995823D01*
X147876Y995554D01*
X147810Y995293D01*
X147729Y995040D01*
X147634Y994796D01*
X147525Y994560D01*
X147401Y994333D01*
X147262Y994114D01*
X147108Y993903D01*
X146940Y993701D01*
X146560Y993322D01*
X146122Y992977D01*
X145630Y992670D01*
X145091Y992403D01*
X144504Y992177D01*
X143869Y991993D01*
X143186Y991849D01*
X142456Y991747D01*
X141678Y991685D01*
X140852Y991665D01*
G37*
G36*
X161884Y991910D02*
X151051Y991910D01*
X151051Y993787D01*
X155456Y993787D01*
X155456Y1007086D01*
X151554Y1004301D01*
X151554Y1006386D01*
X155640Y1009196D01*
X157676Y1009196D01*
X157676Y993787D01*
X161884Y993787D01*
X161884Y991910D01*
G37*
G36*
X19050Y708940D02*
X6709Y708940D01*
X6709Y714134D01*
X6724Y714638D01*
X6770Y715113D01*
X6846Y715559D01*
X6952Y715975D01*
X7089Y716363D01*
X7256Y716721D01*
X7454Y717049D01*
X7681Y717348D01*
X7937Y717615D01*
X8217Y717847D01*
X8523Y718042D01*
X8853Y718202D01*
X9208Y718327D01*
X9588Y718416D01*
X9993Y718469D01*
X10423Y718487D01*
X10850Y718469D01*
X11254Y718416D01*
X11636Y718326D01*
X11995Y718201D01*
X12332Y718041D01*
X12646Y717844D01*
X12938Y717612D01*
X13208Y717344D01*
X13450Y717045D01*
X13660Y716721D01*
X13838Y716372D01*
X13983Y715996D01*
X14096Y715595D01*
X14177Y715169D01*
X14225Y714717D01*
X14242Y714239D01*
X14242Y710613D01*
X19050Y710613D01*
X19050Y708940D01*
G37*
%LPC*%
G36*
X12919Y710613D02*
X12919Y714003D01*
X12909Y714342D01*
X12880Y714660D01*
X12832Y714955D01*
X12764Y715229D01*
X12677Y715481D01*
X12570Y715711D01*
X12445Y715919D01*
X12299Y716105D01*
X12135Y716269D01*
X11951Y716411D01*
X11747Y716532D01*
X11525Y716630D01*
X11283Y716707D01*
X11021Y716762D01*
X10741Y716794D01*
X10440Y716805D01*
X10151Y716794D01*
X9880Y716760D01*
X9628Y716704D01*
X9394Y716626D01*
X9179Y716525D01*
X8983Y716401D01*
X8806Y716255D01*
X8647Y716087D01*
X8507Y715896D01*
X8386Y715683D01*
X8283Y715448D01*
X8199Y715189D01*
X8133Y714909D01*
X8087Y714606D01*
X8059Y714280D01*
X8049Y713933D01*
X8049Y710613D01*
X12919Y710613D01*
G37*
%LPD*%
G36*
X19050Y720773D02*
X17710Y720773D01*
X17710Y723917D01*
X8216Y723917D01*
X10204Y721132D01*
X8715Y721132D01*
X6709Y724048D01*
X6709Y725502D01*
X17710Y725502D01*
X17710Y728506D01*
X19050Y728506D01*
X19050Y720773D01*
G37*
G36*
X15985Y698780D02*
X15713Y700418D01*
X15960Y700464D01*
X16193Y700522D01*
X16412Y700592D01*
X16617Y700674D01*
X16809Y700769D01*
X16986Y700876D01*
X17149Y700996D01*
X17298Y701128D01*
X17432Y701270D01*
X17547Y701421D01*
X17645Y701581D01*
X17725Y701749D01*
X17788Y701927D01*
X17832Y702113D01*
X17859Y702308D01*
X17868Y702511D01*
X17858Y702733D01*
X17828Y702943D01*
X17780Y703140D01*
X17711Y703326D01*
X17623Y703499D01*
X17515Y703661D01*
X17388Y703810D01*
X17241Y703948D01*
X17076Y704071D01*
X16892Y704178D01*
X16690Y704268D01*
X16470Y704342D01*
X16231Y704399D01*
X15974Y704440D01*
X15700Y704465D01*
X15406Y704473D01*
X8076Y704473D01*
X8076Y702100D01*
X6709Y702100D01*
X6709Y706137D01*
X15371Y706137D01*
X15808Y706122D01*
X16221Y706077D01*
X16610Y706001D01*
X16975Y705894D01*
X17316Y705758D01*
X17634Y705591D01*
X17927Y705393D01*
X18196Y705165D01*
X18437Y704911D01*
X18646Y704634D01*
X18823Y704335D01*
X18968Y704014D01*
X19080Y703669D01*
X19161Y703303D01*
X19209Y702914D01*
X19225Y702503D01*
X19213Y702121D01*
X19175Y701759D01*
X19111Y701416D01*
X19023Y701094D01*
X18909Y700792D01*
X18769Y700509D01*
X18605Y700247D01*
X18415Y700004D01*
X18200Y699782D01*
X17959Y699579D01*
X17693Y699396D01*
X17402Y699233D01*
X17086Y699090D01*
X16744Y698967D01*
X16377Y698864D01*
X15985Y698780D01*
G37*
D10*
X38450Y978296D02*
X128716Y978296D01*
X152716Y978296D02*
X240950Y978296D01*
X152716Y978296D02*
X152712Y978004D01*
X152702Y977712D01*
X152684Y977420D01*
X152659Y977129D01*
X152627Y976838D01*
X152588Y976549D01*
X152542Y976260D01*
X152489Y975973D01*
X152429Y975687D01*
X152362Y975402D01*
X152288Y975120D01*
X152207Y974839D01*
X152120Y974560D01*
X152025Y974283D01*
X151924Y974009D01*
X151816Y973738D01*
X151702Y973469D01*
X151581Y973203D01*
X151454Y972939D01*
X151321Y972680D01*
X151181Y972423D01*
X151034Y972170D01*
X150882Y971920D01*
X150724Y971675D01*
X150560Y971433D01*
X150390Y971195D01*
X150214Y970962D01*
X150033Y970733D01*
X149846Y970508D01*
X149653Y970288D01*
X149456Y970073D01*
X149253Y969863D01*
X149045Y969657D01*
X148832Y969457D01*
X148614Y969262D01*
X148392Y969072D01*
X148165Y968888D01*
X147934Y968709D01*
X147698Y968537D01*
X147459Y968369D01*
X147215Y968208D01*
X146967Y968053D01*
X146716Y967904D01*
X146461Y967761D01*
X146203Y967624D01*
X145941Y967493D01*
X145677Y967369D01*
X145409Y967252D01*
X145139Y967141D01*
X144866Y967036D01*
X144591Y966939D01*
X144313Y966848D01*
X144033Y966764D01*
X143751Y966686D01*
X143468Y966616D01*
X143182Y966552D01*
X142896Y966496D01*
X142608Y966446D01*
X142319Y966403D01*
X142028Y966368D01*
X141738Y966340D01*
X141446Y966318D01*
X141154Y966304D01*
X140862Y966297D01*
X140570Y966297D01*
X140278Y966304D01*
X139986Y966318D01*
X139694Y966340D01*
X139404Y966368D01*
X139113Y966403D01*
X138824Y966446D01*
X138536Y966496D01*
X138250Y966552D01*
X137964Y966616D01*
X137681Y966686D01*
X137399Y966764D01*
X137119Y966848D01*
X136841Y966939D01*
X136566Y967036D01*
X136293Y967141D01*
X136023Y967252D01*
X135755Y967369D01*
X135491Y967493D01*
X135229Y967624D01*
X134971Y967761D01*
X134716Y967904D01*
X134465Y968053D01*
X134217Y968208D01*
X133973Y968369D01*
X133734Y968537D01*
X133498Y968709D01*
X133267Y968888D01*
X133040Y969072D01*
X132818Y969262D01*
X132600Y969457D01*
X132387Y969657D01*
X132179Y969863D01*
X131976Y970073D01*
X131779Y970288D01*
X131586Y970508D01*
X131399Y970733D01*
X131218Y970962D01*
X131042Y971195D01*
X130872Y971433D01*
X130708Y971675D01*
X130550Y971920D01*
X130398Y972170D01*
X130251Y972423D01*
X130111Y972680D01*
X129978Y972939D01*
X129851Y973203D01*
X129730Y973469D01*
X129616Y973738D01*
X129508Y974009D01*
X129407Y974283D01*
X129312Y974560D01*
X129225Y974839D01*
X129144Y975120D01*
X129070Y975402D01*
X129003Y975687D01*
X128943Y975973D01*
X128890Y976260D01*
X128844Y976549D01*
X128805Y976838D01*
X128773Y977129D01*
X128748Y977420D01*
X128730Y977712D01*
X128720Y978004D01*
X128716Y978296D01*
X38450Y850650D02*
X240950Y850650D01*
D11*
X19542Y965200D03*
D12*
X25400Y717550D02*
X50800Y717550D01*
X50800Y742950D01*
X25400Y742950D01*
X25400Y717550D01*
D13*
X38100Y749300D02*
X38100Y806450D01*
D12*
X50800Y717550D02*
X76200Y717550D01*
X76200Y742950D01*
X50800Y742950D01*
D13*
X63500Y749300D02*
X63500Y806450D01*
D12*
X76200Y717550D02*
X101600Y717550D01*
X101600Y742950D01*
X76200Y742950D01*
D13*
X88900Y749300D02*
X88900Y806450D01*
D12*
X101600Y717550D02*
X127000Y717550D01*
X127000Y742950D01*
X101600Y742950D01*
D13*
X114300Y749300D02*
X114300Y806450D01*
D12*
X127000Y717550D02*
X152400Y717550D01*
X152400Y742950D01*
X127000Y742950D01*
D13*
X139700Y749300D02*
X139700Y806450D01*
D12*
X152400Y717550D02*
X177800Y717550D01*
X177800Y742950D01*
X152400Y742950D01*
D13*
X165100Y749300D02*
X165100Y806450D01*
D12*
X177800Y717550D02*
X203200Y717550D01*
X203200Y742950D01*
X177800Y742950D01*
D13*
X190500Y749300D02*
X190500Y806450D01*
D12*
X203200Y717550D02*
X228600Y717550D01*
X228600Y742950D01*
X203200Y742950D01*
D13*
X215900Y749300D02*
X215900Y806450D01*
D12*
X228600Y717550D02*
X254000Y717550D01*
X254000Y742950D01*
X228600Y742950D01*
D13*
X241300Y749300D02*
X241300Y806450D01*
D12*
X254000Y717550D02*
X279400Y717550D01*
X279400Y742950D01*
X254000Y742950D01*
D13*
X266700Y749300D02*
X266700Y806450D01*
D14*
X38100Y745490D03*
X63500Y745490D03*
X88900Y745490D03*
X114300Y745490D03*
X139700Y745490D03*
X165100Y745490D03*
X190500Y745490D03*
X215900Y745490D03*
X241300Y745490D03*
X266700Y745490D03*
D15*
X38100Y712470D03*
X63500Y712470D03*
X88900Y712470D03*
X114300Y712470D03*
X139700Y712470D03*
X165100Y712470D03*
X190500Y712470D03*
X215900Y712470D03*
X241300Y712470D03*
X266700Y712470D03*
M02*
